<svg xmlns="http://www.w3.org/2000/svg" viewBox="0 0 24 24" fill="none" stroke="currentColor" stroke-width="2" stroke-linecap="round" stroke-linejoin="round" class="text-cyan-400">
  <circle cx="12" cy="12" r="2" />
  <circle cx="12" cy="12" r="10" />
  <path d="M12 2a4.5 4.5 0 0 0 0 9 4.5 4.5 0 0 0 0-9z" transform="rotate(30 12 12)" />
  <path d="M12 2a4.5 4.5 0 0 0 0 9 4.5 4.5 0 0 0 0-9z" transform="rotate(60 12 12)" />
  <path d="M12 2a4.5 4.5 0 0 0 0 9 4.5 4.5 0 0 0 0-9z" transform="rotate(90 12 12)" />
</svg>

